HIERARCHY
ROOT hip
{
  OFFSET 0 0 0
  CHANNELS 6 Xposition Yposition Zposition Zrotation Yrotation Xrotation
  JOINT abdomen
  {
    OFFSET 0 20.6881 -0.73152
    CHANNELS 3 Zrotation Xrotation Yrotation
    JOINT chest
    {
      OFFSET 0 11.7043 -0.48768
      CHANNELS 3 Zrotation Xrotation Yrotation
      JOINT neck
      {
        OFFSET 0 22.1894 -2.19456
        CHANNELS 3 Zrotation Xrotation Yrotation
        JOINT head
        {
          OFFSET -0.24384 7.07133 1.2192
          CHANNELS 3 Zrotation Xrotation Yrotation
          JOINT leftEye
          {
            OFFSET 4.14528 8.04674 8.04672
            CHANNELS 3 Zrotation Xrotation Yrotation
            End Site
            {
              OFFSET 1 0 0
            }
          }
          JOINT rightEye
          {
            OFFSET -3.6576 8.04674 8.04672
            CHANNELS 3 Zrotation Xrotation Yrotation
            End Site
            {
              OFFSET 1 0 0
            }
          }
        }
      }
      JOINT rCollar
      {
        OFFSET -2.68224 19.2634 -4.8768
        CHANNELS 3 Zrotation Xrotation Yrotation
        JOINT rShldr
        {
          OFFSET -8.77824 -1.95073 1.46304
          CHANNELS 3 Zrotation Xrotation Yrotation
          JOINT rForeArm
          {
            OFFSET -28.1742 -1.7115 0.48768
            CHANNELS 3 Zrotation Xrotation Yrotation
            JOINT rHand
            {
              OFFSET -22.5879 0.773209 7.07136
              CHANNELS 3 Zrotation Xrotation Yrotation
              JOINT rThumb1
              {
                OFFSET -1.2192 -0.487915 3.41376
                CHANNELS 3 Zrotation Xrotation Yrotation
                JOINT rThumb2
                {
                  OFFSET -3.37035 -0.52449 3.41376
                  CHANNELS 3 Zrotation Xrotation Yrotation
                  End Site
                  {
                    OFFSET -1.78271 -1.18214 1.43049
                  }
                }
              }
              JOINT rIndex1
              {
                OFFSET -7.75947 0.938293 5.60832
                CHANNELS 3 Zrotation Xrotation Yrotation
                JOINT rIndex2
                {
                  OFFSET -2.54057 -0.884171 1.56538
                  CHANNELS 3 Zrotation Xrotation Yrotation
                  End Site
                  {
                    OFFSET -1.62519 -0.234802 1.16502
                  }
                }
              }
              JOINT rMid1
              {
                OFFSET -8.24714 1.18213 3.41376
                CHANNELS 3 Zrotation Xrotation Yrotation
                JOINT rMid2
                {
                  OFFSET -3.10165 -0.590103 1.0647
                  CHANNELS 3 Zrotation Xrotation Yrotation
                  End Site
                  {
                    OFFSET -2.48547 -0.328903 0.83742
                  }
                }
              }
              JOINT rRing1
              {
                OFFSET -8.82822 0.546677 1.51678
                CHANNELS 3 Zrotation Xrotation Yrotation
                JOINT rRing2
                {
                  OFFSET -2.60934 -0.819778 -0.0198488
                  CHANNELS 3 Zrotation Xrotation Yrotation
                  End Site
                  {
                    OFFSET -2.33842 -0.294052 0.168128
                  }
                }
              }
              JOINT rPinky1
              {
                OFFSET -8.27202 -0.0477905 -0.4584
                CHANNELS 3 Zrotation Xrotation Yrotation
                JOINT rPinky2
                {
                  OFFSET -1.82734 -0.647385 -0.700984
                  CHANNELS 3 Zrotation Xrotation Yrotation
                  End Site
                  {
                    OFFSET -1.69225 -0.51767 -0.607171
                  }
                }
              }
            }
          }
        }
      }
      JOINT lCollar
      {
        OFFSET 2.68224 19.2634 -4.8768
        CHANNELS 3 Zrotation Xrotation Yrotation
        JOINT lShldr
        {
          OFFSET 8.77824 -1.95073 1.46304
          CHANNELS 3 Zrotation Xrotation Yrotation
          JOINT lForeArm
          {
            OFFSET 28.1742 -1.7115 0.48768
            CHANNELS 3 Zrotation Xrotation Yrotation
            JOINT lHand
            {
              OFFSET 22.5879 0.773209 7.07136
              CHANNELS 3 Zrotation Xrotation Yrotation
              JOINT lThumb1
              {
                OFFSET 1.2192 -0.487915 3.41376
                CHANNELS 3 Zrotation Xrotation Yrotation
                JOINT lThumb2
                {
                  OFFSET 3.37035 -0.52449 3.41376
                  CHANNELS 3 Zrotation Xrotation Yrotation
                  End Site
                  {
                    OFFSET 1.78271 -1.18214 1.43049
                  }
                }
              }
              JOINT lIndex1
              {
                OFFSET 7.75947 0.938293 5.60832
                CHANNELS 3 Zrotation Xrotation Yrotation
                JOINT lIndex2
                {
                  OFFSET 2.54057 -0.884171 1.56538
                  CHANNELS 3 Zrotation Xrotation Yrotation
                  End Site
                  {
                    OFFSET 1.62519 -0.234802 1.16502
                  }
                }
              }
              JOINT lMid1
              {
                OFFSET 8.24714 1.18213 3.41376
                CHANNELS 3 Zrotation Xrotation Yrotation
                JOINT lMid2
                {
                  OFFSET 3.10165 -0.590103 1.0647
                  CHANNELS 3 Zrotation Xrotation Yrotation
                  End Site
                  {
                    OFFSET 2.48547 -0.328903 0.83742
                  }
                }
              }
              JOINT lRing1
              {
                OFFSET 8.82822 0.546677 1.51678
                CHANNELS 3 Zrotation Xrotation Yrotation
                JOINT lRing2
                {
                  OFFSET 2.60934 -0.819778 -0.0198488
                  CHANNELS 3 Zrotation Xrotation Yrotation
                  End Site
                  {
                    OFFSET 2.33842 -0.294052 0.168128
                  }
                }
              }
              JOINT lPinky1
              {
                OFFSET 8.27202 -0.0477905 -0.4584
                CHANNELS 3 Zrotation Xrotation Yrotation
                JOINT lPinky2
                {
                  OFFSET 1.82734 -0.647385 -0.700984
                  CHANNELS 3 Zrotation Xrotation Yrotation
                  End Site
                  {
                    OFFSET 1.69225 -0.51767 -0.607171
                  }
                }
              }
            }
          }
        }
      }
    }
  }
  JOINT rButtock
  {
    OFFSET -8.77824 4.35084 1.2192
    CHANNELS 3 Zrotation Xrotation Yrotation
    JOINT rThigh
    {
      OFFSET 0 -1.70687 -2.19456
      CHANNELS 3 Zrotation Xrotation Yrotation
      JOINT rShin
      {
        OFFSET 0 -36.8199 0.73152
        CHANNELS 3 Zrotation Xrotation Yrotation
        JOINT rFoot
        {
          OFFSET 0.73152 -45.1104 -5.12064
          CHANNELS 3 Zrotation Xrotation Yrotation
          End Site
          {
            OFFSET -1.1221 -3.69964 12.103
          }
        }
      }
    }
  }
  JOINT lButtock
  {
    OFFSET 8.77824 4.35084 1.2192
    CHANNELS 3 Zrotation Xrotation Yrotation
    JOINT lThigh
    {
      OFFSET 0 -1.70687 -2.19456
      CHANNELS 3 Zrotation Xrotation Yrotation
      JOINT lShin
      {
        OFFSET 0 -36.8199 0.73152
        CHANNELS 3 Zrotation Xrotation Yrotation
        JOINT lFoot
        {
          OFFSET -0.73152 -45.1104 -5.12064
          CHANNELS 3 Zrotation Xrotation Yrotation
          End Site
          {
            OFFSET 1.1221 -3.69964 12.103
          }
        }
      }
    }
  }
}
MOTION
Frames:	4
Frame Time:	0.03333
-0.0002807006239891052 -2.764103189110756 0.005872827023267746 -5.794190883636475 0.7018954157829285 5.43017578125 -2.3796486854553223 14.147346496582031 3.5101733207702637 2.639147996902466 -9.465025901794434 1.208371639251709 -5.290740013122559 14.961913108825684 -3.6350479125976562 8.762496948242188 -23.75564193725586 -5.366311550140381 -0.13131801784038544 -0.16361357271671295 -0.2363290935754776 0.17059306800365448 0.08436235785484314 -0.2699146568775177 -0.13993173837661743 0.005887504201382399 0.1095031350851059 48.58538818359375 37.87655258178711 15.95952033996582 -27.33140754699707 -27.058094024658203 62.7672004699707 -0.41785624623298645 -10.116476058959961 -1.6182630062103271 0.014123561792075634 -0.09096859395503998 -0.1101069450378418 0.0867203027009964 0.08452153950929642 0.1759641170501709 -0.04445610195398331 -0.06487099826335907 -0.08074034005403519 7.584076881408691 5.326923370361328 0.5009286403656006 -0.1319766640663147 0.005588697735220194 -0.005466253496706486 3.0026204586029053 1.0991313457489014 0.10959024727344513 0.16916528344154358 0.012026095762848854 -0.23234282433986664 10.089266777038574 0.8593112230300903 -0.09225531667470932 0.05101405829191208 0.1419624537229538 0.037968821823596954 2.2831218242645264 -0.7113678455352783 -0.15954165160655975 -0.0336889810860157 -0.1719750016927719 -0.16322962939739227 -55.09082794189453 39.521724700927734 -26.255271911621094 26.814834594726562 -25.667943954467773 -59.49689865112305 -0.052994027733802795 -11.345450401306152 1.7774635553359985 -0.07672069221735 -0.08475137501955032 -0.2060006856918335 0.09313801676034927 -0.10716058313846588 -0.042235322296619415 0.10454580187797546 0.007204966153949499 0.0449078306555748 -7.745457172393799 5.708826541900635 -0.5094903707504272 -0.33701246976852417 -0.183944433927536 0.006674022413790226 -2.8431880474090576 0.7824048399925232 -0.017807750031352043 0.0773623064160347 -0.034721739590168 -0.05453871935606003 -10.083273887634277 0.736974835395813 -0.22335316240787506 -0.07071591168642044 -0.12172623723745346 0.13559970259666443 -2.3417816162109375 -0.7774427533149719 0.4089685082435608 0.03937632590532303 0.01512330211699009 -0.15941213071346283 -22.907533645629883 -38.977149963378906 -18.827390670776367 -0.8337558507919312 63.664058685302734 1.866847276687622 -3.555450201034546 -11.01126480102539 -10.118648529052734 -0.0630851536989212 0.0509149469435215 -0.19659587740898132 28.865747451782227 -38.211997985839844 21.53083038330078 1.46636164188385 64.01138305664062 -2.7296864986419678 3.9225401878356934 -9.896291732788086 13.135375022888184
-0.0008851289749145508 -2.7819719165563583 0.01455061137676239 -6.151486873626709 0.640438973903656 5.4870100021362305 -2.3757131099700928 14.11060619354248 3.5140271186828613 2.6457302570343018 -9.558371543884277 1.2779954671859741 -5.166011810302734 15.045539855957031 -3.5767781734466553 8.743553161621094 -23.86434555053711 -5.249712944030762 -0.17565353214740753 -0.2399999499320984 -0.3654448390007019 0.19969692826271057 0.06024660915136337 -0.17782700061798096 -0.23059242963790894 -0.012088772840797901 0.0732550397515297 48.394569396972656 37.60625457763672 16.55556869506836 -27.203903198242188 -26.980064392089844 62.94264221191406 -0.5100181698799133 -10.232230186462402 -1.5935322046279907 0.004376282449811697 -0.13248908519744873 -0.12811188399791718 0.06807059794664383 0.11840205639600754 0.21132169663906097 -0.012773963622748852 -0.1403479427099228 -0.17221741378307343 7.576518535614014 5.3998236656188965 0.46744221448898315 -0.047551702708005905 0.06468652933835983 -0.011395851150155067 2.9382331371307373 1.162082552909851 0.10678459703922272 0.11630997806787491 -0.014744269661605358 -0.16674479842185974 10.03935432434082 0.8425617218017578 -0.11780542880296707 0.049175430089235306 0.04280606284737587 0.051156967878341675 2.2107632160186768 -0.8514627814292908 -0.19995097815990448 -0.00647734897211194 -0.16110867261886597 -0.14735807478427887 -55.086219787597656 39.86989974975586 -26.21501922607422 26.82053565979004 -25.921703338623047 -60.02391815185547 -0.02710418961942196 -11.615127563476562 1.7675434350967407 -0.07792317867279053 -0.07130037993192673 -0.10524698346853256 0.14152219891548157 -0.22190964221954346 -0.09169454872608185 0.06702620536088943 -0.05037836357951164 0.07225216925144196 -7.822876453399658 5.810330390930176 -0.5300467610359192 -0.2634437382221222 -0.10604019463062286 0.059090565890073776 -2.787632703781128 0.7299438714981079 -0.03095673955976963 0.08812844753265381 0.03192044794559479 -0.2009507119655609 -10.172285079956055 0.6871947050094604 -0.2789401412010193 -0.17125287652015686 -0.08888141065835953 0.22661209106445312 -2.2899281978607178 -0.7544292211532593 0.45745140314102173 0.08598145842552185 0.20005615055561066 -0.18325604498386383 -22.387283325195312 -39.03269577026367 -18.505878448486328 -0.7339182496070862 63.516597747802734 1.800158143043518 -3.7354063987731934 -10.971631050109863 -10.380552291870117 -0.04680044949054718 -0.0014200026635080576 -0.16152054071426392 28.610322952270508 -38.11327362060547 21.525299072265625 1.5517958402633667 63.90306854248047 -2.8145503997802734 3.8602819442749023 -9.480976104736328 13.15802001953125
-0.005241483449935913 -2.4350469931960106 0.04328601062297821 -1.2330209016799927 66.49907684326172 18.993854522705078 -4.0284271240234375 18.103870391845703 9.521139144897461 -1.5982953310012817 -12.115434646606445 2.6512656211853027 -0.9336308836936951 14.275543212890625 6.541481971740723 2.8264124393463135 -22.99699592590332 12.859663963317871 -0.14108173549175262 -0.14672312140464783 -0.0673229992389679 0.16650956869125366 -0.4086080491542816 -0.09887009859085083 0.17932656407356262 0.34940168261528015 -0.8420422673225403 36.80308532714844 54.13538360595703 23.773406982421875 -28.00474739074707 -41.69473648071289 86.92633056640625 -0.34960418939590454 -5.418680667877197 -0.9713079333305359 -0.17465882003307343 -0.10773880779743195 -0.25698599219322205 0.3330278694629669 0.34012219309806824 0.4910796284675598 0.3176265060901642 -0.06446143239736557 -0.3122510313987732 7.475510120391846 5.558640003204346 0.3098739981651306 -0.28667473793029785 -0.042861197143793106 0.09000423550605774 3.0778684616088867 1.7034026384353638 -0.02141665294766426 0.4636848270893097 -0.6429131627082825 0.39963698387145996 10.29456901550293 1.0745080709457397 -0.5575515627861023 -0.5366418361663818 -0.3576427698135376 0.0655040368437767 2.1706957817077637 -0.7145152688026428 0.18376199901103973 -0.11253684759140015 -0.5600438117980957 -0.43854936957359314 -55.45320129394531 22.357114791870117 -21.780197143554688 27.639163970947266 -41.83330154418945 -86.31165313720703 1.7567166090011597 -33.67812728881836 5.150056838989258 0.15486855804920197 -0.40855640172958374 -0.27929767966270447 -0.34963059425354004 0.010306729935109615 0.2703254818916321 0.4984208643436432 -0.07267187535762787 0.13915909826755524 -7.387211799621582 5.920624256134033 -0.49299386143684387 -0.9155296087265015 0.11915545910596848 0.03550706431269646 -2.8060860633850098 0.6987064480781555 0.33221402764320374 0.4673942029476166 -0.42239612340927124 0.0325385183095932 -10.187220573425293 0.7686635851860046 -0.271608829498291 0.13313229382038116 -0.2383766770362854 0.4441416263580322 -2.503946304321289 -1.235008955001831 0.42736077308654785 0.16482268273830414 -0.4690496027469635 -0.06521523743867874 -49.9129753112793 -45.212310791015625 -47.38749313354492 -137.96627807617188 88.53245544433594 138.98973083496094 -3.61146879196167 -21.91695785522461 -8.328546524047852 -0.04870457947254181 -0.052494294941425323 -0.3263412117958069 70.77558135986328 -50.956024169921875 60.07173538208008 148.22064208984375 88.80400085449219 -149.75558471679688 -0.4041253328323364 -14.703690528869629 -0.9368007183074951
-0.004494376480579376 -2.2071903571486473 0.07344977930188179 -92.99471282958984 86.92717742919922 118.07792663574219 -5.255867958068848 17.08993911743164 14.329657554626465 -4.494711399078369 -13.46776294708252 4.042285919189453 1.3730963468551636 13.546367645263672 12.763946533203125 -1.495349645614624 -21.831226348876953 24.660415649414062 -0.001821099896915257 0.07372616976499557 -0.21918997168540955 0.41495510935783386 -0.3903091549873352 -0.43589913845062256 0.2511674761772156 0.5574444532394409 -0.4907566010951996 30.619190216064453 65.34274291992188 28.779783248901367 -26.319612503051758 -44.74822998046875 93.99829864501953 -0.5635268092155457 -0.1307516247034073 -0.09887981414794922 -0.39616966247558594 -0.01915847323834896 -0.216716930270195 -0.184430792927742 0.4400981068611145 0.3379130959510803 -0.012108166702091694 0.06160503998398781 0.10744398832321167 7.409082412719727 5.678009986877441 0.4726342260837555 -0.4850424826145172 -0.3558178246021271 -0.19374161958694458 2.917245388031006 1.5543806552886963 -0.09259171038866043 0.5789684057235718 -0.42985525727272034 0.39859333634376526 9.906996726989746 1.3821253776550293 -0.37065696716308594 -0.8059887290000916 0.23356281220912933 -0.01587853394448757 2.433485746383667 -0.8926443457603455 0.492374449968338 -0.23377607762813568 -0.5541536808013916 -0.4977075755596161 -55.819549560546875 8.042815208435059 -18.50382423400879 26.552059173583984 -45.851688385009766 -93.70108032226562 2.4689199924468994 -37.259979248046875 6.283840179443359 0.033842138946056366 -0.009505439549684525 -0.24929623305797577 -0.24606472253799438 -0.27387967705726624 0.29770347476005554 0.5447025895118713 0.17145870625972748 -0.005824108142405748 -7.179579257965088 6.054016590118408 -0.42154330015182495 -0.7895916104316711 -0.11462339758872986 0.06942451000213623 -2.74070405960083 0.8336499929428101 0.28145676851272583 0.12080006301403046 -0.14794866740703583 0.026088641956448555 -10.146797180175781 0.7065156698226929 0.06998325884342194 -0.36458584666252136 -0.5108792185783386 0.13376595079898834 -2.6232659816741943 -1.298796534538269 0.8668473958969116 0.16590717434883118 -0.18154427409172058 -0.11534427851438522 -66.5350112915039 -41.57025146484375 -61.37747573852539 -175.50222778320312 76.96748352050781 176.9121551513672 -3.318446397781372 -28.09412956237793 -6.335194110870361 0.10486218333244324 -0.034356288611888885 -0.35853615403175354 91.66378784179688 -48.441612243652344 77.35406494140625 173.02947998046875 81.08499908447266 -174.54566955566406 -3.658296585083008 -16.662843704223633 -8.520155906677246
